<svg xmlns="http://www.w3.org/2000/svg" width="960" height="560" viewBox="0 0 960 560" role="img" aria-label="Pro Terminal Setup demo screenshot">
  <defs>
    <linearGradient id="bg" x1="0" x2="1" y1="0" y2="1">
      <stop offset="0" stop-color="#11111b"/>
      <stop offset="0.55" stop-color="#1e1e2e"/>
      <stop offset="1" stop-color="#181825"/>
    </linearGradient>
    <filter id="shadow" x="-20%" y="-20%" width="140%" height="140%">
      <feDropShadow dx="0" dy="18" stdDeviation="22" flood-color="#000" flood-opacity="0.35"/>
    </filter>
  </defs>
  <rect width="960" height="560" fill="#0b0b12"/>
  <circle cx="810" cy="70" r="160" fill="#89b4fa" opacity="0.12"/>
  <circle cx="160" cy="500" r="180" fill="#cba6f7" opacity="0.10"/>
  <rect x="70" y="58" width="820" height="444" rx="18" fill="url(#bg)" filter="url(#shadow)" stroke="#313244"/>
  <rect x="70" y="58" width="820" height="42" rx="18" fill="#181825"/>
  <circle cx="98" cy="79" r="7" fill="#f38ba8"/>
  <circle cx="122" cy="79" r="7" fill="#f9e2af"/>
  <circle cx="146" cy="79" r="7" fill="#a6e3a1"/>
  <text x="480" y="84" fill="#6c7086" font-size="14" font-family="JetBrains Mono, SFMono-Regular, Menlo, monospace" text-anchor="middle">Ghostty • Pro Terminal Setup</text>

  <g font-family="JetBrains Mono, SFMono-Regular, Menlo, monospace" font-size="20">
    <rect x="102" y="128" width="310" height="34" rx="8" fill="#89b4fa"/>
    <text x="118" y="151" fill="#1e1e2e" font-weight="700">~/hr-solution</text>
    <text x="102" y="197" fill="#a6e3a1" font-weight="700">❯</text>
    <text x="132" y="197" fill="#cdd6f4">z hr</text>
    <text x="102" y="237" fill="#f38ba8">java v25.0.2</text>
    <text x="102" y="277" fill="#cba6f7">git:main</text>
    <text x="210" y="277" fill="#fab387">(!2 ?1)</text>
    <text x="102" y="337" fill="#a6e3a1" font-weight="700">❯</text>
    <text x="132" y="337" fill="#cdd6f4">ll</text>
    <text x="102" y="377" fill="#89b4fa">drwxr-xr-x</text>
    <text x="258" y="377" fill="#cdd6f4">src</text>
    <text x="102" y="411" fill="#89b4fa">-rw-r--r--</text>
    <text x="258" y="411" fill="#cdd6f4">pom.xml</text>
    <text x="102" y="451" fill="#a6e3a1" font-weight="700">❯</text>
    <text x="132" y="451" fill="#cdd6f4">k9</text>
  </g>

  <g transform="translate(545 148)" font-family="JetBrains Mono, SFMono-Regular, Menlo, monospace">
    <rect x="0" y="0" width="294" height="240" rx="12" fill="#11111b" stroke="#45475a"/>
    <text x="18" y="32" fill="#89b4fa" font-size="16" font-weight="700">terminal-intro</text>
    <text x="18" y="70" fill="#cdd6f4" font-size="14">Starship = smarter prompt</text>
    <text x="18" y="100" fill="#cdd6f4" font-size="14">zoxide   = smarter cd</text>
    <text x="18" y="130" fill="#cdd6f4" font-size="14">fzf      = interactive search</text>
    <text x="18" y="160" fill="#cdd6f4" font-size="14">kubectl  = k, kg, kd, kl</text>
    <text x="18" y="190" fill="#cdd6f4" font-size="14">k9s      = Kubernetes UI</text>
    <text x="18" y="220" fill="#cdd6f4" font-size="14">tmux     = persistent panes</text>
  </g>
</svg>
